<?xml version="1.0" encoding="UTF-8"?>
<svg id="Layer_1" data-name="Layer 1" xmlns="http://www.w3.org/2000/svg" viewBox="0 0 787 332">
  <defs>
    <style>
      .cls-1 {
        fill: #fff;
      }

      .cls-2 {
        fill: #0c0c0c;
      }
    </style>
  </defs>
  <rect id="bg1" class="cls-2" x="-12" y="-12" width="811" height="356"/>
  <g>
    <g>
      <g>
        <path class="cls-1" d="m341.33,195.7v-65.5h13.48v65.5h-13.48Z"/>
        <path class="cls-1" d="m394.98,195.7v-29.92c0-5.75-2.7-8.72-8.09-8.72-6.11,0-10.15,3.77-10.15,9.52v29.11h-12.58v-48.52h12.58v7.01c3.59-5.39,8-7.82,14.56-7.82,10.33,0,16.26,6.11,16.26,16.8v32.53h-12.58Z"/>
        <path class="cls-1" d="m431.9,156.52v39.18h-12.58v-39.18h-6.83v-8.36h6.83v-5.84c0-8.18,4.04-12.13,12.4-12.13,1.71,0,4.85.09,7.19.27v9.43c-1.08-.18-2.52-.27-3.59-.27-2.34,0-3.41,1.26-3.41,3.77v4.76h7.46v8.36h-7.46Zm15.28-15.19v-10.85h12.58v10.85h-12.58Zm0,54.36v-48.52h12.58v48.52h-12.58Z"/>
        <path class="cls-1" d="m498.84,195.7v-29.92c0-5.75-2.7-8.72-8.09-8.72-6.11,0-10.15,3.77-10.15,9.52v29.11h-12.58v-48.52h12.58v7.01c3.59-5.39,8-7.82,14.56-7.82,10.33,0,16.26,6.11,16.26,16.8v32.53h-12.58Z"/>
        <path class="cls-1" d="m519.6,195.7v-48.52h12.58v48.52h-12.58Zm.18-54.36v-10.85h12.58v10.85h-12.58Z"/>
        <path class="cls-1" d="m556.17,196.06c-8.27,0-12.31-3.14-12.31-10.78v-29.62h-6.2v-8.36h6.2v-12.17h12.58v12.17h7.01v8.36h-7.01v26.2c0,4.31.81,5.3,4.13,5.3.9,0,1.62-.09,2.88-.27v8.81c-2.25.09-4.49.36-7.28.36Z"/>
        <path class="cls-1" d="m598.04,195.7c-1.17-1.44-1.44-3.59-1.44-6.11-4.4,4.58-9.34,6.92-14.74,6.92-8.09,0-14.74-4.49-14.74-13.93,0-8.81,4.67-12.94,14.29-14.65l5.03-.9c6.29-1.08,10.06-.54,10.06-5.66,0-3.23-2.43-4.85-7.28-4.85-6.2,0-8.27,1.62-8.9,6.65h-12.13c.81-11.23,7.64-16.8,20.76-16.8s19.86,5.03,19.86,14.92v26.96c0,2.52.63,3.86,2.88,5.93v1.53h-13.66Zm-1.53-22.91c-1.44.72-1.98.9-5.3,1.53l-4.31.81c-5.21.99-7.19,2.34-7.19,6.02s2.61,5.21,6.83,5.21c6.38,0,9.97-4.13,9.97-11.41v-2.16Z"/>
      </g>
      <path class="cls-1" d="m630.9,158.43c-1.56,0-3.03-.29-4.4-.88s-2.57-1.39-3.6-2.43c-1.04-1.04-1.85-2.24-2.43-3.61s-.88-2.83-.88-4.39.29-3.03.88-4.4c.58-1.37,1.39-2.57,2.43-3.6,1.04-1.04,2.24-1.85,3.6-2.43s2.83-.88,4.4-.88,3.03.29,4.39.88,2.57,1.39,3.61,2.43,1.85,2.24,2.43,3.6c.58,1.37.88,2.83.88,4.4s-.29,3.03-.88,4.39-1.39,2.57-2.43,3.61-2.24,1.85-3.61,2.43-2.83.88-4.39.88Zm0-2.71c1.58,0,3.02-.38,4.32-1.16,1.3-.77,2.34-1.81,3.11-3.11s1.16-2.74,1.16-4.32-.39-3.02-1.16-4.32c-.77-1.3-1.81-2.34-3.11-3.11-1.3-.77-2.74-1.16-4.32-1.16s-3.02.39-4.32,1.16c-1.3.77-2.34,1.81-3.11,3.11-.77,1.3-1.16,2.74-1.16,4.32s.39,3.02,1.16,4.32c.77,1.3,1.81,2.34,3.11,3.11s2.74,1.16,4.32,1.16Zm-3.96-3.5v-10.43h5.28c.42,0,.88.12,1.38.36.5.24.93.61,1.28,1.1.35.5.53,1.12.53,1.87s-.18,1.41-.55,1.95c-.37.53-.81.93-1.33,1.21-.52.27-1.01.41-1.48.41h-3.81v-1.7h3.11c.31,0,.65-.15,1.01-.47.36-.31.54-.78.54-1.4s-.18-1.07-.54-1.3c-.36-.22-.68-.34-.95-.34h-2.18v8.73h-2.29Zm6.3-4.92l2.6,4.92h-2.51l-2.54-4.92h2.46Z"/>
    </g>
    <g>
      <polygon class="cls-1" points="211.67 135.48 175.05 147.69 175.05 166 211.67 153.79 211.67 135.48"/>
      <polygon class="cls-1" points="248.29 129.38 211.67 117.17 211.67 135.48 248.29 147.69 248.29 129.38"/>
      <polygon class="cls-1" points="211.67 178.21 175.05 166 175.05 184.31 211.67 196.52 248.29 184.31 248.29 166 211.67 178.21"/>
      <polygon class="cls-1" points="284.91 135.48 248.29 147.69 248.29 166 284.91 153.79 321.53 166 321.53 147.69 284.91 135.48"/>
      <polygon class="cls-1" points="284.91 196.52 321.53 184.31 321.53 166 284.91 178.21 284.91 196.52"/>
      <polygon class="cls-1" points="248.29 202.62 284.91 214.83 284.91 196.52 248.29 184.31 248.29 202.62"/>
    </g>
  </g>
</svg>